<svg xmlns="http://www.w3.org/2000/svg" xmlns:xlink="http://www.w3.org/1999/xlink" viewBox="0 0 898.37 271.76"><defs><style>.cls-1,.cls-2,.cls-3,.cls-4,.cls-9{fill:none;}.cls-2{clip-rule:evenodd;}.cls-3{fill-rule:evenodd;}.cls-3,.cls-6{clip-path:url(#clip-path);}.cls-4,.cls-9{stroke:#219372;stroke-linecap:round;}.cls-4{stroke-miterlimit:10;stroke-width:14.44px;}.cls-5{clip-path:url(#clip-path-2);}.cls-7{fill:#4d4d4d;}.cls-8{fill:#219372;}.cls-9{stroke-linejoin:round;stroke-width:13.81px;}</style><clipPath id="clip-path"><polyline class="cls-2" points="2.56 5.53 2.56 5.53 2.56 278.47 904.95 278.47 904.95 5.53"/></clipPath><clipPath id="clip-path-2"><polygon class="cls-1" points="2.56 271.43 898.37 271.43 898.37 5.53 2.56 5.53 2.56 271.43 2.56 271.43"/></clipPath></defs><title>Fichier 1</title><g id="Calque_2" data-name="Calque 2"><g id="Calque_1-2" data-name="Calque 1"><path class="cls-4" d="M261.69,115.05c0,9.26.16,11.18.16,20.83,0,71.05-54.92,128.66-126,128.66a128.66,128.66,0,1,1,84.49-225.7"/><g class="cls-5"><g class="cls-6"><path class="cls-7" d="M156.7,194.23h0c9.17,0,15.84-2.53,20.84-7.58s7.49-11,7.49-20.22a24.64,24.64,0,0,0-2.5-11.79c-2.5-3.37-4.16-5.9-7.49-8.43a41.48,41.48,0,0,0-10.84-3.37,48.79,48.79,0,0,0-11.66-1.68H113.38a6.61,6.61,0,0,0-6.67,6.74v39.59a6.61,6.61,0,0,0,6.67,6.74Zm-10-69.92h0c11.66,0,19.16-1.68,24.16-5.89s7.5-10.11,7.5-18.54a28.33,28.33,0,0,0-2.5-12.63c-1.67-3.37-3.33-5.9-6.67-7.59a46.54,46.54,0,0,0-10-3.36c-4.16,0-8.33-.85-12.49-.85H113.38c-4.17,0-6.67,3.37-6.67,7.58v34.54a6.61,6.61,0,0,0,6.67,6.74Zm-5.84-65.7H151.7c3.34,0,7.5.84,10.84.84,4.16.84,7.5.84,10,1.68a24.86,24.86,0,0,1,8.33,3.37q7.5,3.8,12.5,12.64c3.33,5,5,11,5,19.37,0,7.58-1.67,15.17-5.84,21.06-3.33,5.9-9.16,10.11-15.83,12.64v.84c9.17,1.69,15.83,5.9,20.83,12.64S205,158,205,167.27c0,5.9-.83,11-3.33,16a31,31,0,0,1-8.33,14.32,43.74,43.74,0,0,1-14.17,10.11c-5.83,2.53-12.5,3.37-20,3.37H93.38a6.61,6.61,0,0,1-6.67-6.74v-139a6.6,6.6,0,0,1,6.67-6.73Z"/><path class="cls-7" d="M322.52,94.83h0c1.66,0,3.33,1.68,3.33,4.21v13.48h.83c6.67-13.48,19.17-20.22,35-20.22A55,55,0,0,1,380,95.67c4.17,1.69,8.33,5,11.67,8.42a29.45,29.45,0,0,1,5.83,12.64,94.58,94.58,0,0,1,1.67,16v69.07a3.6,3.6,0,0,1-3.34,3.37H385a3.59,3.59,0,0,1-3.33-3.37V131.05c0-6.74-2.5-12.63-5.83-16a23.11,23.11,0,0,0-16.67-6.74A35.61,35.61,0,0,0,345,110.83a22.81,22.81,0,0,0-10,7.59c-2.5,3.36-5,6.73-5.84,11a38.63,38.63,0,0,0-2.5,13.47v59a3.59,3.59,0,0,1-3.33,3.37H312.52a3.59,3.59,0,0,1-3.33-3.37V99c0-2.53,1.66-4.21,3.33-4.21Z"/><path class="cls-7" d="M501.66,187.49h0a28.82,28.82,0,0,0,10-10.11c2.5-4.21,5-8.42,5.84-13.48,1.66-5.89,1.66-11,1.66-16,0-4.21,0-9.27-1.66-14.32a40.14,40.14,0,0,0-5-12.64,35.63,35.63,0,0,0-10-9.26,31.89,31.89,0,0,0-14.17-3.37,39.38,39.38,0,0,0-15,3.37c-4.16,2.52-7.49,5-10,9.26-2.5,3.37-4.17,7.58-5.84,12.64a94.12,94.12,0,0,0-1.66,15.16,94,94,0,0,0,1.66,15.16,37.55,37.55,0,0,0,5,13.48,28.82,28.82,0,0,0,10,10.11,31.86,31.86,0,0,0,14.17,3.37,39.28,39.28,0,0,0,15-3.37ZM525,236.35h0c-8.34,9.27-20.84,13.48-38.33,13.48-5,0-10,0-15.84-1.69a36.79,36.79,0,0,1-25-15.16,29.3,29.3,0,0,1-4.17-15.16h17.5c0,3.37,1.67,5.9,3.33,8.42,1.67,1.69,4.17,4.21,6.67,5.06,2.5,1.68,5.83,2.52,9.16,3.37a37.14,37.14,0,0,0,9.17.84c5.83,0,10.83-.84,15-3.37a19.56,19.56,0,0,0,10-8.42,29.45,29.45,0,0,0,5.83-12.64c1.67-5.06,1.67-11,1.67-16.85v-7.58h0a35.58,35.58,0,0,1-14.17,15.16,44,44,0,0,1-20,5.06,45.69,45.69,0,0,1-21.66-5.06,40.81,40.81,0,0,1-15-11.79c-4.17-5.06-6.67-11-9.17-17.69a86.09,86.09,0,0,1-2.49-21.06A84.28,84.28,0,0,1,440,131.05a50.54,50.54,0,0,1,8.34-19.37c3.33-5.06,9.16-10.11,15-13.48a53.88,53.88,0,0,1,24.16-5.9,38.35,38.35,0,0,1,19.16,5.06c5.84,2.52,10,7.58,13.34,13.47h0v-16h15c.84,0,2.5,1.68,2.5,3.37v97.72q0,27.79-12.49,40.43Z"/><path class="cls-8" d="M664.15,186.65h0c9.16,0,15.83-2.53,20.83-7.58s7.5-11.8,7.5-20.22c0-5-.84-9.27-2.5-11.79a23.91,23.91,0,0,0-7.5-8.43,27.75,27.75,0,0,0-10-4.21c-4.17,0-8.33-.84-12.5-.84H620a5.73,5.73,0,0,0-5.83,5.9v41.27a5.73,5.73,0,0,0,5.83,5.9Zm-10-69.92h0c11.66,0,20-2.53,25-5.9,5-4.21,7.5-10.11,7.5-18.53,0-5-.83-10.11-2.5-12.64a16.44,16.44,0,0,0-7.5-7.58c-2.5-1.68-5.83-2.52-10-3.37-4.17,0-7.5-.84-12.5-.84H620a5.73,5.73,0,0,0-5.83,5.9v37.06a5.73,5.73,0,0,0,5.83,5.9Zm-5-65.71h10c4.16,0,7.5.85,11.66.85a41.53,41.53,0,0,1,10,1.68,24.86,24.86,0,0,1,8.33,3.37,41.2,41.2,0,0,1,12.5,11.79,37.29,37.29,0,0,1,5,19.38c0,8.42-1.67,15.16-5.83,21.06s-9.17,10.95-16.67,13.48h0c9.17,2.52,16.67,6.74,21.67,13.48,5,5.89,6.66,14.32,6.66,23.58a49.48,49.48,0,0,1-2.5,16c-1.66,5.9-5,10.11-9.16,14.32-3.33,4.21-8.33,7.58-14.17,10.11-5.83,1.68-12.5,3.37-20,3.37H600a5.73,5.73,0,0,1-5.84-5.9V56.92A5.73,5.73,0,0,1,600,51Z"/><path class="cls-8" d="M765.8,97.36h0V199.29a4,4,0,0,1-4.17,4.21h-10c-1.67,0-3.34-1.69-3.34-4.21V97.36c0-2.53,1.67-4.22,3.34-4.22h10a4,4,0,0,1,4.17,4.22Zm-17.5-27.8h0V55.24c0-2.53,1.67-4.22,3.34-4.22h10a4,4,0,0,1,4.17,4.22V69.56c0,1.68-1.67,3.37-4.17,3.37h-10a3.61,3.61,0,0,1-3.34-3.37Z"/><polyline class="cls-9" points="235.86 101.57 235.86 101.57 258.97 68.91 282.52 101.57"/></g></g><path class="cls-8" d="M821.71,93.78h0c1.67,0,3.33,1.69,3.33,4.21v13.48h.84c6.66-13.48,19.16-20.22,35-20.22a55,55,0,0,1,18.33,3.37c4.17,1.69,8.34,5.06,11.67,8.43a29.41,29.41,0,0,1,5.83,12.63,94.69,94.69,0,0,1,1.67,16v69.08a3.61,3.61,0,0,1-3.34,3.37H884.2a3.61,3.61,0,0,1-3.33-3.37V130c0-6.74-2.5-12.64-5.83-16a23.15,23.15,0,0,0-16.67-6.74,35.43,35.43,0,0,0-14.16,2.53,22.72,22.72,0,0,0-10,7.58c-2.5,3.37-5,6.74-5.83,10.95a38.45,38.45,0,0,0-2.5,13.48v59a3.61,3.61,0,0,1-3.34,3.37H811.71a3.6,3.6,0,0,1-3.33-3.37V98c0-2.52,1.66-4.21,3.33-4.21Z"/></g></g></svg>