<?xml version="1.0" encoding="utf-8"?>
<!-- Generator: Adobe Illustrator 22.0.1, SVG Export Plug-In . SVG Version: 6.00 Build 0)  -->
<svg version="1.1" id="Capa_1" xmlns="http://www.w3.org/2000/svg" xmlns:xlink="http://www.w3.org/1999/xlink" x="0px" y="0px"
	 viewBox="0 0 512 512" style="enable-background:new 0 0 512 512;" xml:space="preserve">
<style type="text/css">
	.st0{fill:#EF4950;}
	.st1{fill:#EBF0F3;}
	.st2{fill:#F17176;}
	.st3{fill:#FDC573;}
	.st4{fill:#FCB957;}
	.st5{fill:#EA8953;}
</style>
<g>
	<polygon class="st0" points="209.3,167.7 175.4,201.6 175.4,490.2 209.3,512 355.2,512 385.9,487 385.9,202.9 352.6,167.7 	"/>
	<polygon class="st1" points="265,246.4 247.7,246.4 247.7,90.9 126.1,14.7 135.7,0 265,81.3 	"/>
	<polygon class="st2" points="282.9,512 209.3,512 175.4,490.2 175.4,201.6 209.3,167.7 282.9,167.7 	"/>
	<path class="st3" d="M362.2,167.7H198.4c-3.8,0-6.4-2.6-6.4-6.4v-4.5c0-3.8,2.6-6.4,6.4-6.4h163.8c3.8,0,6.4,2.6,6.4,6.4v4.5
		C368.6,165.1,366.1,167.7,362.2,167.7z"/>
	<ellipse class="st4" cx="280.3" cy="340.5" rx="83.2" ry="62.1"/>
	<g>
		<path class="st3" d="M282.9,402.6c-46.1,0-85.8-27.5-85.8-62.1s39.7-62.1,85.8-62.1V402.6L282.9,402.6z"/>
		<path class="st3" d="M311,167l-9.6,0.6c-3.8,0.6-8.3-2.6-9.6-7.7l-9.6-30.7c-3.8-12.8-0.6-26.2,7.7-27.5l21.1-1.9
			c8.3-0.6,14.1,12.2,12.2,25.6l-3.8,32C318.7,163.2,314.9,166.4,311,167z"/>
	</g>
	<ellipse class="st5" cx="302.1" cy="122.9" rx="13.4" ry="13.4"/>
</g>
</svg>
