<?xml version="1.0"?>
<svg xmlns="http://www.w3.org/2000/svg" xmlns:xlink="http://www.w3.org/1999/xlink" class="" id="Layer_1" style="enable-background:new 0 0 512 512;" viewBox="0 0 512 512" x="0px" y="0px" width="512px" height="512px" version="1.1" xml:space="preserve"><g><path class="active-path" style="fill:#2DBDDC" d="M 175.738 12.345 c -2.935 -9.293 -12.845 -14.465 -22.15 -11.516 c -9.302 2.94 -14.457 12.853 -11.521 22.155 l 26.219 83.026 l 37.013 -0.057 L 175.738 12.345 Z" data-original="#00c3ff" data-old_color="#21B4D4"/><path class="" style="fill:#25A8C4" d="M 142.067 22.983 l 26.219 83.026 l 17.647 -0.028 l -24.242 -81.914 c -2.04 -6.893 -9.411 -11.353 -16.164 -8.888 C 142.298 16.358 140.6 18.332 142.067 22.983 Z" data-original="#00aaf0" data-old_color="#25a8c4"/><path class="" style="fill:#FAE6BE;" d="M 141.243 467.863 v 26.482 c 0 9.75 7.905 17.655 17.655 17.655 h 194.203 c 9.75 0 17.655 -7.905 17.655 -17.655 v -26.482 H 141.243 Z" data-original="#fae6be"/><path style="fill:#F5DCB4;" d="M 238.345 494.345 v -26.482 h -97.102 v 26.482 c 0 9.75 7.905 17.655 17.655 17.655 h 97.102 C 246.25 512 238.345 504.095 238.345 494.345 Z" data-original="#f5dcb4"/><path class="" style="fill:#FAF0D3" d="M 423.72 97.111 H 88.279 c -4.879 0 -8.827 3.948 -8.827 8.827 c 0 4.879 3.948 8.827 8.827 8.827 h 18.075 l 16.034 336.702 c 0.672 14.119 12.316 25.222 26.452 25.222 h 214.32 c 14.136 0 25.779 -11.103 26.452 -25.222 l 16.034 -336.702 h 18.075 c 4.879 0 8.827 -3.948 8.827 -8.827 C 432.549 101.059 428.6 97.111 423.72 97.111 Z" data-original="#faf0d3"/><path class="" style="fill:#FAE6BE;" d="M 405.645 114.766 H 106.354 l 16.034 336.702 c 0.672 14.119 12.316 25.222 26.452 25.222 h 80.702 c -11.641 0 -21.231 -11.103 -21.784 -25.222 l -12.152 -309.873 c -0.196 -5.007 3.81 -9.173 8.821 -9.173 h 200.378 L 405.645 114.766 Z" data-original="#fae6be"/><circle class="active-path" style="fill:#2DBDDC" cx="255.995" cy="308.97" r="88.274" data-original="#00c3ff" data-old_color="#21B4D4"/><path class="" style="fill:#25A8C4" d="M 167.725 308.969 c 0 29.729 14.743 55.967 37.266 71.962 l -5.481 -139.771 C 180.095 257.352 167.725 281.709 167.725 308.969 Z" data-original="#00aaf0" data-old_color="#25a8c4"/><circle class="" style="fill:#FAF0D3" cx="255.995" cy="308.97" r="61.792" data-original="#faf0d3"/><circle class="" style="fill:#25A8C4" cx="255.995" cy="308.97" r="44.137" data-original="#00aaf0" data-old_color="#25a8c4"/></g> </svg>
